<?xml version="1.0" encoding="UTF-8" standalone="no"?>
<svg
   xmlns:dc="http://purl.org/dc/elements/1.1/"
   xmlns:cc="http://creativecommons.org/ns#"
   xmlns:rdf="http://www.w3.org/1999/02/22-rdf-syntax-ns#"
   xmlns:svg="http://www.w3.org/2000/svg"
   xmlns="http://www.w3.org/2000/svg"
   xmlns:xlink="http://www.w3.org/1999/xlink"
   xmlns:sodipodi="http://sodipodi.sourceforge.net/DTD/sodipodi-0.dtd"
   xmlns:inkscape="http://www.inkscape.org/namespaces/inkscape"
   height="1087"
   width="3800"
   inkscape:version="1.0 (4035a4fb49, 2020-05-01)"
   sodipodi:docname="logo-largexx.svg"
   id="svg18"
   version="1.1"
   class="iconLeftSlogan"
   viewBox="0 0 3800 1087"
   data-v-423bf9ae="">
  <metadata
     id="metadata22">
    <rdf:RDF>
      <cc:Work
         rdf:about="">
        <dc:format>image/svg+xml</dc:format>
        <dc:type
           rdf:resource="http://purl.org/dc/dcmitype/StillImage" />
        <dc:title></dc:title>
      </cc:Work>
    </rdf:RDF>
  </metadata>
  <sodipodi:namedview
     fit-margin-bottom="0"
     fit-margin-right="0"
     fit-margin-left="0"
     fit-margin-top="0"
     inkscape:current-layer="svg18"
     inkscape:window-maximized="1"
     inkscape:window-y="-8"
     inkscape:window-x="-8"
     inkscape:cy="105"
     inkscape:cx="2962.5"
     inkscape:zoom="0.25"
     showgrid="false"
     id="namedview20"
     inkscape:window-height="1027"
     inkscape:window-width="1920"
     inkscape:pageshadow="2"
     inkscape:pageopacity="0"
     guidetolerance="10"
     gridtolerance="10"
     objecttolerance="10"
     borderopacity="1"
     bordercolor="#666666"
     pagecolor="#ffffff" />
  <!---->
  <!---->
  <!---->
  <g
     style="stroke-width:0.101821"
     transform="matrix(53.827432,0,0,53.023391,928.96382,25.767253)"
     fill="#2f190e"
     id="bf7a4f8e-4bd8-4488-a76a-bdafdd7dcda8"
     data-v-423bf9ae="">
    <path
       style="stroke-width:0.101821"
       id="path2"
       d="m 4.34,1.4 v 0 q 1.58,0 2.83,0.7 v 0 0 q 1.24,0.7 1.94,1.94 v 0 0 q 0.7,1.24 0.7,2.82 v 0 0 q 0,1.58 -0.7,2.83 v 0 0 q -0.7,1.24 -1.94,1.94 v 0 0 q -1.25,0.7 -2.83,0.7 v 0 H 1.82 v 0 q -0.18,0 -0.3,-0.12 v 0 0 Q 1.4,12.1 1.4,11.91 v 0 -10.09 0 q 0,-0.2 0.12,-0.31 v 0 0 Q 1.64,1.4 1.82,1.4 v 0 z m 0,10.18 v 0 q 1.34,0 2.39,-0.61 v 0 0 Q 7.78,10.36 8.38,9.28 v 0 0 Q 8.97,8.2 8.97,6.86 v 0 0 q 0,-1.34 -0.59,-2.42 v 0 0 Q 7.78,3.37 6.73,2.76 v 0 0 Q 5.68,2.16 4.34,2.16 v 0 h -2.1 v 9.42 z M 15.09,4.61 v 0 q 1.02,0 1.83,0.48 v 0 0 q 0.8,0.48 1.25,1.34 v 0 0 q 0.45,0.85 0.45,1.94 v 0 0 q 0,0.18 -0.11,0.29 v 0 0 q -0.11,0.1 -0.3,0.1 v 0 h -5.86 v 0 q 0.04,0.83 0.43,1.48 v 0 0 q 0.39,0.65 1.05,1.02 v 0 0 q 0.66,0.36 1.47,0.36 v 0 0 q 0.55,0 1.1,-0.19 v 0 0 q 0.55,-0.19 0.88,-0.5 v 0 0 q 0.14,-0.11 0.29,-0.11 v 0 0 q 0.15,0 0.25,0.09 v 0 0 q 0.16,0.12 0.16,0.29 v 0 0 q 0,0.14 -0.13,0.27 v 0 0 q -0.45,0.4 -1.17,0.67 v 0 0 Q 15.96,12.4 15.3,12.4 v 0 0 q -1.1,0 -1.96,-0.49 v 0 0 q -0.87,-0.5 -1.36,-1.39 v 0 0 Q 11.49,9.63 11.49,8.51 v 0 0 q 0,-1.13 0.46,-2.02 v 0 0 Q 12.4,5.6 13.22,5.1 v 0 0 q 0.82,-0.49 1.87,-0.49 z m 0,0.78 v 0 q -1.09,0 -1.84,0.73 v 0 0 Q 12.5,6.85 12.36,8.04 v 0 h 5.45 v 0 Q 17.71,6.85 16.97,6.12 v 0 0 Q 16.23,5.39 15.09,5.39 Z m 11.37,-0.7 v 0 Q 26.7,4.8 26.7,5.05 v 0 0 q 0,0.1 -0.03,0.16 v 0 l -3.15,6.84 v 0 q -0.14,0.3 -0.45,0.3 v 0 0 q -0.12,0 -0.23,-0.08 v 0 0 q -0.1,-0.08 -0.16,-0.22 v 0 L 19.49,5.22 v 0 Q 19.46,5.17 19.46,5.07 v 0 0 q 0,-0.25 0.24,-0.37 v 0 0 q 0.08,-0.04 0.17,-0.04 v 0 0 q 0.23,0 0.35,0.24 v 0 l 2.87,6.22 2.82,-6.23 v 0 q 0.12,-0.24 0.37,-0.24 v 0 0 q 0.1,0 0.18,0.04 z m 5.28,-0.1 v 0 q 1.09,0 1.99,0.51 v 0 0 q 0.89,0.51 1.4,1.41 v 0 0 q 0.51,0.9 0.51,2 v 0 0 q 0,1.09 -0.51,1.99 v 0 0 q -0.51,0.9 -1.4,1.41 v 0 0 q -0.9,0.51 -1.99,0.51 v 0 0 q -1.11,0 -2,-0.51 v 0 0 Q 28.84,11.4 28.33,10.5 v 0 0 Q 27.82,9.6 27.82,8.51 v 0 0 q 0,-1.1 0.51,-2 v 0 0 q 0.51,-0.9 1.41,-1.41 v 0 0 q 0.89,-0.51 2,-0.51 z m 0,0.79 v 0 q -0.87,0 -1.57,0.41 v 0 0 q -0.7,0.41 -1.11,1.13 v 0 0 q -0.4,0.71 -0.4,1.59 v 0 0 q 0,0.88 0.4,1.6 v 0 0 q 0.41,0.71 1.11,1.12 v 0 0 q 0.7,0.4 1.57,0.4 v 0 0 q 0.87,0 1.57,-0.4 v 0 0 q 0.7,-0.41 1.1,-1.12 v 0 0 Q 34.8,9.39 34.8,8.51 v 0 0 q 0,-0.88 -0.39,-1.59 v 0 0 Q 34.01,6.2 33.31,5.79 v 0 0 Q 32.61,5.38 31.74,5.38 Z m 12.49,-0.7 v 0 q 0.19,0 0.3,0.11 v 0 0 q 0.12,0.11 0.12,0.31 v 0 6.81 0 q 0,0.19 -0.12,0.3 v 0 0 q -0.11,0.12 -0.3,0.12 v 0 0 q -0.19,0 -0.3,-0.12 v 0 0 q -0.12,-0.11 -0.12,-0.3 v 0 -0.72 0 q -0.48,0.58 -1.17,0.91 v 0 0 q -0.68,0.33 -1.49,0.33 v 0 0 q -1.03,0 -1.83,-0.42 v 0 0 q -0.81,-0.42 -1.26,-1.22 v 0 0 Q 37.6,9.98 37.6,8.86 v 0 -3.76 0 q 0,-0.19 0.12,-0.31 v 0 0 q 0.12,-0.11 0.3,-0.11 v 0 0 q 0.19,0 0.31,0.11 v 0 0 q 0.11,0.12 0.11,0.31 v 0 3.76 0 q 0,1.33 0.75,2.03 v 0 0 q 0.75,0.7 1.96,0.7 v 0 0 q 0.74,0 1.35,-0.29 v 0 0 q 0.61,-0.28 0.96,-0.79 v 0 0 Q 43.81,10 43.81,9.38 v 0 -4.28 0 q 0,-0.2 0.12,-0.31 v 0 0 q 0.11,-0.11 0.3,-0.11 z m 6.18,-0.09 v 0 q 1.07,0 1.07,0.46 v 0 0 q 0,0.07 -0.02,0.12 v 0 0 q -0.04,0.15 -0.13,0.21 v 0 0 q -0.09,0.07 -0.24,0.07 v 0 0 q -0.13,0 -0.33,-0.03 v 0 0 Q 50.55,5.39 50.41,5.39 v 0 0 q -0.7,0 -1.24,0.29 v 0 0 q -0.55,0.3 -0.86,0.82 v 0 0 q -0.3,0.51 -0.3,1.16 v 0 4.25 0 q 0,0.19 -0.12,0.3 v 0 0 q -0.11,0.12 -0.3,0.12 v 0 0 q -0.19,0 -0.3,-0.12 v 0 0 q -0.12,-0.11 -0.12,-0.3 v 0 -6.81 0 q 0,-0.2 0.12,-0.31 v 0 0 q 0.11,-0.11 0.3,-0.11 v 0 0 q 0.19,0 0.3,0.11 v 0 0 q 0.12,0.11 0.12,0.31 v 0 0.86 0 q 0.4,-0.64 1.03,-1 v 0 0 q 0.63,-0.37 1.37,-0.37 z" />
  </g>
  <defs
     id="defs10"
     data-v-423bf9ae="">
    <linearGradient
       y2="0"
       x2="1"
       y1="0"
       x1="0"
       id="36f984de-0add-4f9a-832d-f2c282df3841"
       gradientTransform="rotate(25)"
       data-v-423bf9ae="">
      <stop
         id="stop5"
         style="stop-color: rgb(169, 37, 128); stop-opacity: 1;"
         offset="0%"
         data-v-423bf9ae="" />
      <stop
         id="stop7"
         style="stop-color: rgb(247, 188, 0); stop-opacity: 1;"
         offset="100%"
         data-v-423bf9ae="" />
    </linearGradient>
    <linearGradient
       gradientUnits="userSpaceOnUse"
       y2="1.781956"
       x2="14.055863"
       y1="1.781956"
       x1="3.356992"
       gradientTransform="scale(0.89186984,1.1212398)"
       id="linearGradient24"
       xlink:href="#36f984de-0add-4f9a-832d-f2c282df3841"
       inkscape:collect="always" />
    <linearGradient
       gradientUnits="userSpaceOnUse"
       y2="1.781956"
       x2="14.055863"
       y1="1.781956"
       x1="3.356992"
       gradientTransform="scale(0.89186984,1.1212398)"
       id="linearGradient26"
       xlink:href="#36f984de-0add-4f9a-832d-f2c282df3841"
       inkscape:collect="always" />
  </defs>
  <g
     style="fill:url(#linearGradient26);stroke-width:0.101821"
     fill="url(#36f984de-0add-4f9a-832d-f2c282df3841)"
     stroke="none"
     transform="matrix(74.239321,0,0,73.13038,-122.27253,-36.386539)"
     id="e0ca6294-b9dc-4fa7-85b9-688f177fc722"
     data-v-423bf9ae="">
    <path
       id="path12"
       color="#000000"
       overflow="visible"
       d="M 6.01,1.998 H 8.992 V 13.994 H 6.01 Z M 7,3.006 v 4 h 1 v -4 z m 3.917,1.68 1.619,8.789 -1.967,0.36 L 8.95,5.048 Z M 2.994,5.004 h 2.02 v 8.99 h -2.02 z"
       style="text-indent:0;text-transform:none;fill:url(#linearGradient24);stroke-width:0.101655" />
  </g>
  <!---->
  <g
     style="stroke-width:0.101821"
     transform="matrix(7.6922185,0,0,7.577317,1010.0166,680.82367)"
     fill="#2f190e"
     id="bddbb1f4-42df-4518-80c0-f4564a38a8df"
     data-v-423bf9ae="">
    <path
       style="stroke-width:0.101821"
       id="path15"
       d="m 5.38,1.59 v 0 Q 4.28,1.45 2.6,1.75 v 0 0 Q 2.6,1.74 2.61,1.7 v 0 0 Q 2.63,1.66 2.63,1.64 v 0 0 Q 2.69,1.39 2.04,1.5 v 0 0 Q 1.74,1.56 1.49,1.67 v 0 0 Q 1.22,1.8 1.19,1.9 v 0 0 Q 1.2,1.88 1.14,2.08 v 0 0 Q 0.95,2.18 0.89,2.3 v 0 0 Q 0.82,2.43 1.04,2.45 v 0 0 q -1.27,4.8 -1.78,8.53 v 0 0 q -0.01,0.12 0.37,0.09 v 0 0 Q -0.12,11.05 0.05,11 v 0 0 q 0.64,-0.17 0.67,-0.41 v 0 0 Q 0.94,8.95 1.31,7.16 v 0 0 Q 1.24,7.17 2.3,7.09 v 0 0 Q 2.94,7.05 3.27,6.75 v 0 0 Q 3.43,6.6 3.24,6.54 v 0 0 Q 3.11,6.5 2.93,6.51 v 0 0 Q 1.8,6.6 1.41,6.66 v 0 0 Q 1.83,4.65 2.47,2.24 v 0 0 Q 3.49,2.06 4.18,2.15 v 0 0 Q 4.66,2.21 5.2,1.96 v 0 0 Q 5.34,1.89 5.45,1.78 v 0 0 Q 5.6,1.62 5.38,1.59 Z m 8.5,3.61 v 0 q -0.12,1.44 -0.39,2.72 v 0 0 q -0.41,1.96 -1.18,2.72 v 0 0 q -0.09,-0.09 -0.16,-0.26 v 0 0 Q 11.96,9.97 11.98,9.03 v 0 0 Q 12,7.34 12.58,5.48 v 0 0 q 0.5,-1.63 1.19,-2.47 v 0 0 q 0.08,0.24 0.13,0.61 v 0 0 q 0.07,0.59 -0.02,1.58 z m 0.93,-3.24 v 0 q -0.2,-0.17 -0.94,0.09 v 0 0 q -0.5,0.19 -0.48,0.34 v 0 0 q -0.25,0.09 -0.43,0.24 v 0 0 Q 11.98,3.4 11.31,5.22 v 0 0 Q 10.77,6.7 10.58,8.5 v 0 0 q -0.09,0.78 -0.06,1.42 v 0 0 q 0.04,0.85 0.4,1.21 v 0 0 q 0.19,0.18 0.62,0.2 v 0 0 q 0.54,0.03 1.37,-0.31 v 0 0 q 0.68,-0.28 1.2,-1.08 v 0 0 Q 14.58,9.21 14.9,7.85 v 0 0 q 0.21,-0.91 0.33,-2.01 v 0 0 q 0.16,-1.4 0.16,-2.06 v 0 0 Q 15.38,2.45 14.81,1.96 Z m 11.32,3.35 v 0 q -0.15,0.93 -1.04,1.87 v 0 0 q -0.19,0.2 -0.43,0.4 v 0 0 q -0.06,0.05 -0.13,0.1 v 0 0 Q 24.32,7.59 24.06,7.58 v 0 0 q 0.56,-2.84 0.71,-4.92 v 0 0 q 0.26,0.14 0.5,0.33 v 0 0 q 0.52,0.4 0.75,1.04 v 0 0 q 0.22,0.62 0.11,1.28 z M 23.16,2.4 v 0 q 0,0 0.01,-0.01 v 0 0 q 0,0.01 -0.01,0.01 z m 4.94,9.02 v 0 Q 27.36,10.88 25.83,8.99 v 0 0 Q 25.16,8.17 25.05,8.05 v 0 0 Q 25.5,7.84 25.94,7.5 v 0 0 q 1.2,-0.94 1.55,-2.09 v 0 0 Q 27.74,4.6 27.54,3.84 v 0 0 Q 27.32,3.07 26.7,2.53 v 0 0 Q 25.46,1.46 23.39,1.88 v 0 0 q -0.13,0.03 -0.33,0.08 v 0 0 q -0.74,0.18 -0.68,0.41 v 0 0 q 0.06,0.21 0.77,0.03 v 0 0 q 0.07,-0.01 0.12,-0.02 v 0 0 q 0.04,-0.01 0.07,-0.01 v 0 0 q -0.11,2.74 -1.35,8.42 v 0 0 q -0.05,0.25 0.58,0.13 v 0 0 q 0.31,-0.05 0.56,-0.17 v 0 0 q 0.28,-0.13 0.3,-0.22 v 0 0 q 0.3,-1.36 0.39,-1.81 v 0 0 q 0.01,0 0.01,0 v 0 0 q 0.01,0 0.01,0 v 0 0 q 0.11,0.13 0.79,0.98 v 0 0 q 1.32,1.64 2.08,2.22 v 0 0 q 0.23,0.17 0.95,-0.09 v 0 0 q 0.18,-0.07 0.33,-0.16 v 0 0 q 0.24,-0.15 0.11,-0.25 z M 50.46,2.63 v 0 q -0.29,-0.79 -1,-1.21 v 0 0 Q 48.8,1.03 47.91,1.02 v 0 0 Q 46.9,1 45.64,1.39 v 0 0 Q 44.92,1.61 44.97,1.8 v 0 0 q 0.07,0.24 0.79,0.03 v 0 0 q 0.19,-0.07 0.38,-0.11 v 0 0 q 0.01,0 0.06,-0.02 v 0 0 q 0.05,-0.01 0.07,-0.01 v 0 0 Q 46.33,1.67 46.4,1.66 v 0 0 q 0.06,-0.01 0.17,-0.03 v 0 0 q 0,0 0.1,-0.01 v 0 0 q 0.07,-0.01 0.2,-0.01 v 0 0 q 0,0 0.09,0 v 0 0 q 0.73,0 1.29,0.39 v 0 0 q 0.61,0.43 0.83,1.27 v 0 0 q 0.19,0.71 0.08,1.54 v 0 0 Q 48.91,6.56 47.72,7.4 v 0 0 q -0.04,0.02 -0.1,0.06 v 0 0 q 0.01,0 -0.01,0 v 0 0 Q 47.6,7.47 47.58,7.48 v 0 0 q -0.06,0 -0.06,0.01 v 0 0 q -0.1,0 -0.18,-0.02 v 0 0 Q 46.66,7.36 46.59,6.66 v 0 0 Q 46.58,6.6 46.48,6.58 v 0 0 Q 46.49,6.55 46.5,6.49 v 0 0 q 0.01,-0.05 0.02,-0.07 v 0 0 q 0.54,-3.17 0.86,-4.18 v 0 0 Q 47.46,1.98 46.8,2.1 v 0 0 q -0.31,0.05 -0.56,0.17 v 0 0 Q 45.97,2.4 45.94,2.5 v 0 0 q -0.32,1.01 -0.88,4.27 v 0 0 Q 44.82,8.13 44.6,8.89 v 0 0 q -0.45,1.55 -0.49,2.05 v 0 0 q 0,0.07 0.22,0.08 v 0 0 q 0.21,0.01 0.49,-0.04 v 0 0 q 0.73,-0.14 0.76,-0.43 v 0 0 q 0.03,-0.42 0.49,-2.01 v 0 0 Q 46.14,8.31 46.2,8.03 v 0 0 q 0.64,0.1 1.49,-0.11 v 0 0 q 1.71,-0.4 2.54,-2.17 v 0 0 Q 51.01,4.09 50.46,2.63 Z M 61.65,1.42 v 0 Q 60.94,1.19 59.76,1.57 v 0 0 q -1.51,0.49 -2.07,2.2 v 0 0 q -0.35,1.06 -0.17,2.34 v 0 0 q 0.09,0.65 0.35,1.05 v 0 0 Q 57.46,7.38 57.16,7.7 v 0 0 q -1,1.1 -0.89,2.31 v 0 0 q 0.07,0.69 0.55,1.1 v 0 0 q 0.4,0.33 1.22,0.31 v 0 0 q 0.84,-0.03 1.54,-0.47 v 0 0 q 0.75,-0.46 1.05,-1.19 v 0 0 Q 60.7,9.61 60.42,9.6 v 0 0 Q 60.25,9.59 60.05,9.63 v 0 0 Q 59.3,9.76 59.2,10.02 v 0 0 Q 59,10.51 58.65,10.8 v 0 0 q -0.01,0.01 -0.02,0.02 v 0 0 q -0.05,-0.01 -0.06,-0.01 v 0 0 Q 58.5,10.79 58.42,10.75 v 0 0 Q 58.26,10.68 58.1,10.52 v 0 0 Q 57.81,10.23 57.74,9.63 v 0 0 q -0.1,-0.8 0.53,-1.77 v 0 0 q 0.08,-0.12 0.18,-0.24 v 0 0 q 0.22,0.08 0.49,0.1 v 0 0 q 0.4,0.02 0.89,-0.21 v 0 0 Q 60.25,7.32 60.1,7.18 v 0 0 Q 59.81,6.9 59.39,6.84 v 0 0 Q 59.35,6.79 59.32,6.75 v 0 0 Q 59.11,6.45 59,5.89 v 0 0 Q 58.81,4.89 58.99,4 v 0 0 q 0.27,-1.3 1.04,-1.96 v 0 0 Q 60.08,2 60.18,1.93 v 0 0 q 0,0 0,0 v 0 0 q 0.13,0.01 0.11,0 v 0 0 q 0.58,0.09 0.47,0.69 v 0 0 q -0.05,0.24 0.58,0.13 v 0 0 Q 61.65,2.69 61.9,2.58 v 0 0 q 0.28,-0.13 0.3,-0.22 v 0 0 Q 62.34,1.63 61.65,1.42 Z M 71.2,5.2 v 0 q -0.12,1.44 -0.39,2.72 v 0 0 q -0.41,1.96 -1.18,2.72 v 0 0 q -0.09,-0.09 -0.16,-0.26 v 0 0 Q 69.28,9.97 69.3,9.03 v 0 0 q 0.02,-1.69 0.6,-3.55 v 0 0 q 0.5,-1.63 1.19,-2.47 v 0 0 q 0.08,0.24 0.13,0.61 v 0 0 Q 71.29,4.21 71.2,5.2 Z m 0.93,-3.24 v 0 q -0.2,-0.17 -0.94,0.09 v 0 0 q -0.5,0.19 -0.48,0.34 v 0 0 q -0.25,0.09 -0.43,0.24 v 0 0 Q 69.3,3.4 68.63,5.22 v 0 0 Q 68.09,6.7 67.89,8.5 v 0 0 q -0.08,0.78 -0.05,1.42 v 0 0 q 0.04,0.85 0.4,1.21 v 0 0 q 0.19,0.18 0.62,0.2 v 0 0 q 0.54,0.03 1.37,-0.31 v 0 0 q 0.68,-0.28 1.2,-1.08 v 0 0 Q 71.9,9.21 72.21,7.85 v 0 0 q 0.22,-0.91 0.34,-2.01 v 0 0 q 0.16,-1.4 0.16,-2.06 v 0 0 Q 72.7,2.45 72.13,1.96 Z m 13.34,0.67 v 0 Q 85.18,1.84 84.46,1.42 v 0 0 Q 83.81,1.03 82.92,1.02 v 0 0 Q 81.91,1 80.65,1.39 v 0 0 Q 79.93,1.61 79.97,1.8 v 0 0 q 0.07,0.24 0.8,0.03 v 0 0 q 0.19,-0.07 0.38,-0.11 v 0 0 q 0.01,0 0.05,-0.02 v 0 0 q 0.06,-0.01 0.07,-0.01 v 0 0 Q 81.33,1.67 81.4,1.66 v 0 0 q 0.06,-0.01 0.17,-0.03 v 0 0 q 0.01,0 0.11,-0.01 v 0 0 q 0.06,-0.01 0.19,-0.01 v 0 0 q 0.01,0 0.1,0 v 0 0 q 0.72,0 1.28,0.39 v 0 0 q 0.61,0.43 0.84,1.27 v 0 0 q 0.19,0.71 0.07,1.54 v 0 0 Q 83.92,6.56 82.73,7.4 v 0 0 q -0.04,0.02 -0.1,0.06 v 0 0 q 0.01,0 -0.01,0 v 0 0 q -0.01,0.01 -0.04,0.02 v 0 0 q -0.05,0 -0.05,0.01 v 0 0 q -0.1,0 -0.18,-0.02 v 0 0 Q 81.67,7.36 81.59,6.66 v 0 0 q 0,-0.06 -0.1,-0.08 v 0 0 Q 81.5,6.55 81.51,6.49 v 0 0 q 0.01,-0.05 0.02,-0.07 v 0 0 q 0.54,-3.17 0.86,-4.18 v 0 0 Q 82.47,1.98 81.81,2.1 v 0 0 Q 81.5,2.15 81.25,2.27 v 0 0 Q 80.98,2.4 80.94,2.5 v 0 0 q -0.32,1.01 -0.88,4.27 v 0 0 Q 79.83,8.13 79.6,8.89 v 0 0 q -0.44,1.55 -0.48,2.05 v 0 0 q -0.01,0.07 0.22,0.08 v 0 0 q 0.21,0.01 0.49,-0.04 v 0 0 q 0.72,-0.14 0.75,-0.43 v 0 0 q 0.04,-0.42 0.49,-2.01 v 0 0 q 0.07,-0.23 0.14,-0.51 v 0 0 q 0.64,0.1 1.48,-0.11 v 0 0 q 1.71,-0.4 2.55,-2.17 v 0 0 q 0.78,-1.66 0.23,-3.12 z m 8.93,8.7 v 0 q -1.04,0.03 -1.49,-0.17 v 0 0 q 0.86,-4.59 1.97,-9.08 v 0 0 Q 94.95,1.83 94.3,1.95 v 0 0 Q 94,2 93.75,2.12 v 0 0 q -0.28,0.13 -0.3,0.22 v 0 0 q -1.12,4.49 -1.99,9.13 v 0 0 q -0.08,0.09 -0.02,0.14 v 0 0 q 0,0.02 0,0.09 v 0 0 q -0.01,0.04 -0.02,0.08 v 0 0 q -0.02,0.16 0.63,0.05 v 0 0 q 0.49,0.12 1.4,0.09 v 0 0 q 0.61,-0.01 1.03,-0.27 v 0 0 q 0.18,-0.11 0.16,-0.21 v 0 0 Q 94.61,11.33 94.4,11.33 Z m 12.19,-9.91 v 0 q -0.71,-0.23 -1.89,0.15 v 0 0 q -1.51,0.49 -2.07,2.2 v 0 0 q -0.35,1.06 -0.17,2.34 v 0 0 q 0.09,0.65 0.35,1.05 v 0 0 Q 102.4,7.38 102.1,7.7 v 0 0 q -1,1.1 -0.89,2.31 v 0 0 q 0.07,0.69 0.55,1.1 v 0 0 q 0.4,0.33 1.22,0.31 v 0 0 q 0.84,-0.03 1.54,-0.47 v 0 0 q 0.75,-0.46 1.05,-1.19 v 0 0 q 0.07,-0.15 -0.21,-0.16 v 0 0 q -0.18,-0.01 -0.37,0.03 v 0 0 q -0.75,0.13 -0.85,0.39 v 0 0 q -0.2,0.49 -0.55,0.78 v 0 0 q -0.01,0.01 -0.03,0.02 v 0 0 q -0.04,-0.01 -0.05,-0.01 v 0 0 q -0.07,-0.02 -0.15,-0.06 v 0 0 q -0.16,-0.07 -0.32,-0.23 v 0 0 q -0.29,-0.29 -0.36,-0.89 v 0 0 q -0.1,-0.8 0.53,-1.77 v 0 0 q 0.08,-0.12 0.18,-0.24 v 0 0 q 0.22,0.08 0.49,0.1 v 0 0 q 0.4,0.02 0.89,-0.21 v 0 0 q 0.42,-0.19 0.27,-0.33 v 0 0 Q 104.75,6.9 104.33,6.84 v 0 0 q -0.04,-0.05 -0.08,-0.09 v 0 0 q -0.2,-0.3 -0.31,-0.86 v 0 0 q -0.19,-1 -0.01,-1.89 v 0 0 q 0.27,-1.3 1.04,-1.96 v 0 0 Q 105.02,2 105.12,1.93 v 0 0 q 0,0 0,0 v 0 0 q 0.13,0.01 0.11,0 v 0 0 q 0.58,0.09 0.47,0.69 v 0 0 q -0.05,0.24 0.58,0.13 v 0 0 q 0.31,-0.06 0.56,-0.17 v 0 0 q 0.28,-0.13 0.3,-0.22 v 0 0 q 0.14,-0.73 -0.55,-0.94 z m 21.54,8.85 v 0 q -0.01,0 -0.02,0.01 v 0 0 q 0.01,-0.01 0.02,-0.01 z m 3.82,-9.6 v 0 q -0.06,-0.25 -0.8,-0.05 v 0 0 q -0.73,0.2 -0.66,0.44 v 0 0 q 0.2,0.73 0.23,1.41 v 0 0 q 0.02,0.48 -0.11,1.54 v 0 0 q -0.21,1.58 -0.57,2.72 v 0 0 q -0.29,0.92 -0.9,2.08 v 0 0 q 0.03,-0.03 -0.04,0.09 v 0 0 q -0.08,-1.69 -0.08,-6.92 v 0 0 q 0,-0.09 -0.22,-0.1 v 0 0 q -0.2,-0.01 -0.49,0.06 v 0 0 q -0.71,0.16 -0.75,0.43 v 0 0 q -0.37,2.61 -0.97,4.44 v 0 0 q -0.5,1.49 -1.18,2.56 v 0 0 q -0.27,-1.19 -0.16,-3.6 v 0 0 q 0.01,-0.22 0.06,-1.99 v 0 0 q 0.03,-1.24 0.42,-1.84 v 0 0 q 0.09,-0.14 -0.22,-0.15 v 0 0 q -0.21,-0.01 -0.36,0.02 v 0 0 q -0.68,0.12 -0.86,0.4 v 0 0 q -0.37,0.57 -0.44,1.73 v 0 0 q -0.02,0.36 -0.02,1.02 v 0 0 q -0.02,0.69 -0.03,1.01 v 0 0 q -0.16,3.38 0.48,4.83 v 0 0 q 0.07,0.16 0.59,0.07 v 0 0 q 0.58,-0.1 0.8,-0.32 v 0 0 q 1.16,-1.12 1.92,-2.8 v 0 0 q 0.03,1.55 0.12,2.85 v 0 0 q 0.01,0.17 0.46,0.09 v 0 0 q 0.29,-0.05 0.52,-0.12 v 0 0 q 0.93,-0.32 1.67,-1.61 v 0 0 q 0.63,-1.07 1.01,-2.17 v 0 0 q 0.41,-1.16 0.66,-2.9 v 0 0 q 0.16,-1.12 0.16,-1.64 v 0 0 q 0,-0.72 -0.24,-1.58 z m 11.56,0.64 v 0 q -0.3,0.05 -0.56,0.17 v 0 0 q -0.28,0.13 -0.3,0.22 v 0 0 q -0.2,0.85 -0.65,2.55 v 0 0 q -0.45,1.69 -0.65,2.55 v 0 0 q -0.65,0.08 -1.32,0.23 v 0 0 q 0.2,-0.99 0.61,-2.72 v 0 0 q 0.47,-1.94 0.63,-2.72 v 0 0 q 0.06,-0.25 -0.58,-0.13 v 0 0 q -0.3,0.05 -0.55,0.17 v 0 0 q -0.28,0.13 -0.3,0.22 v 0 0 q -0.17,0.76 -0.65,2.79 v 0 0 q -0.42,1.77 -0.63,2.8 v 0 0 q -0.14,0.05 -0.17,0.06 v 0 0 q -0.16,0.05 -0.32,0.16 v 0 0 q -0.26,0.16 -0.12,0.25 v 0 0 q 0.17,0.1 0.51,0.03 v 0 0 q -0.33,1.71 -0.45,3.14 v 0 0 q -0.01,0.07 0.22,0.08 v 0 0 q 0.21,0.01 0.49,-0.04 v 0 0 q 0.73,-0.14 0.75,-0.43 v 0 0 q 0.12,-1.43 0.45,-3.16 v 0 0 q 0.21,-0.04 0.56,-0.11 v 0 0 q 0.37,-0.06 0.75,-0.09 v 0 0 q -0.46,2.11 -0.55,3.8 v 0 0 q 0,0.07 0.22,0.08 v 0 0 q 0.21,0.01 0.49,-0.04 v 0 0 q 0.74,-0.14 0.75,-0.43 v 0 0 q 0.08,-1.57 0.49,-3.49 v 0 0 q 0.34,-0.07 0.6,-0.23 v 0 0 q 0.17,-0.11 0.15,-0.2 v 0 0 q -0.03,-0.1 -0.24,-0.11 v 0 0 q -0.17,0 -0.39,0 v 0 0 q 0.21,-0.92 0.67,-2.64 v 0 0 q 0.48,-1.79 0.67,-2.63 v 0 0 q 0.06,-0.25 -0.58,-0.13 z m 10.34,3.89 v 0 q -0.12,1.44 -0.39,2.72 v 0 0 q -0.41,1.96 -1.18,2.72 v 0 0 q -0.09,-0.09 -0.17,-0.26 v 0 0 q -0.18,-0.41 -0.17,-1.35 v 0 0 q 0.03,-1.69 0.6,-3.55 v 0 0 q 0.5,-1.63 1.2,-2.47 v 0 0 q 0.08,0.24 0.12,0.61 v 0 0 q 0.07,0.59 -0.01,1.58 z m 0.93,-3.24 v 0 q -0.21,-0.17 -0.94,0.09 v 0 0 q -0.5,0.19 -0.48,0.34 v 0 0 q -0.26,0.09 -0.43,0.24 v 0 0 q -0.99,0.77 -1.65,2.59 v 0 0 q -0.55,1.48 -0.74,3.28 v 0 0 q -0.08,0.78 -0.05,1.42 v 0 0 q 0.04,0.85 0.4,1.21 v 0 0 q 0.18,0.18 0.61,0.2 v 0 0 q 0.54,0.03 1.37,-0.31 v 0 0 q 0.69,-0.28 1.21,-1.08 v 0 0 q 0.47,-0.73 0.78,-2.09 v 0 0 q 0.21,-0.91 0.34,-2.01 v 0 0 q 0.16,-1.4 0.16,-2.06 v 0 0 q -0.01,-1.33 -0.58,-1.82 z m 19.84,9.37 v 0 q -1.04,0.03 -1.48,-0.17 v 0 0 Q 174,6.57 175.11,2.08 v 0 0 q 0.07,-0.25 -0.58,-0.13 v 0 0 q -0.3,0.05 -0.56,0.17 v 0 0 q -0.28,0.13 -0.3,0.22 v 0 0 q -1.12,4.49 -1.98,9.13 v 0 0 q -0.09,0.09 -0.02,0.14 v 0 0 q 0,0.02 -0.01,0.09 v 0 0 q 0,0.04 -0.01,0.08 v 0 0 q -0.02,0.16 0.62,0.05 v 0 0 q 0.49,0.12 1.4,0.09 v 0 0 q 0.61,-0.01 1.04,-0.27 v 0 0 q 0.17,-0.11 0.15,-0.21 v 0 0 q -0.02,-0.11 -0.24,-0.11 z M 185.35,5.2 v 0 q -0.12,1.44 -0.39,2.72 v 0 0 q -0.41,1.96 -1.18,2.72 v 0 0 q -0.09,-0.09 -0.17,-0.26 v 0 0 q -0.18,-0.41 -0.17,-1.35 v 0 0 q 0.03,-1.69 0.6,-3.55 v 0 0 q 0.5,-1.63 1.2,-2.47 v 0 0 q 0.08,0.24 0.12,0.61 v 0 0 q 0.07,0.59 -0.01,1.58 z m 0.93,-3.24 v 0 q -0.21,-0.17 -0.94,0.09 v 0 0 q -0.5,0.19 -0.48,0.34 v 0 0 q -0.26,0.09 -0.43,0.24 v 0 0 q -0.99,0.77 -1.65,2.59 v 0 0 q -0.55,1.48 -0.74,3.28 v 0 0 q -0.08,0.78 -0.05,1.42 v 0 0 q 0.04,0.85 0.4,1.21 v 0 0 q 0.18,0.18 0.61,0.2 v 0 0 q 0.54,0.03 1.37,-0.31 v 0 0 q 0.69,-0.28 1.21,-1.08 v 0 0 q 0.47,-0.73 0.78,-2.09 v 0 0 q 0.21,-0.91 0.34,-2.01 v 0 0 q 0.16,-1.4 0.16,-2.06 v 0 0 q -0.01,-1.33 -0.58,-1.82 z m 12.81,0.17 v 0 Q 199.04,1.9 198.31,2.08 v 0 0 q -0.74,0.19 -0.68,0.44 v 0 0 q 0.1,0.52 -0.07,1.21 v 0 0 q -0.06,0.23 -0.17,0.6 v 0 0 q -0.14,0.44 -0.18,0.59 v 0 0 q -0.37,1.32 -0.61,2.05 v 0 0 q -0.34,1.02 -0.65,1.68 v 0 0 q 0.03,-5.87 0.01,-6.47 v 0 0 q 0,-0.09 -0.23,-0.1 v 0 0 q -0.22,-0.01 -0.51,0.05 v 0 0 q -0.73,0.16 -0.72,0.45 v 0 0 q 0.05,1.48 0.02,4.09 v 0 0 q -0.04,2.92 -0.02,4.08 v 0 0 q 0,0.18 0.59,0.07 v 0 0 q 0.55,-0.1 0.8,-0.32 v 0 0 q 1.24,-1.1 2.13,-3.73 v 0 0 q 0.24,-0.7 0.63,-2.12 v 0 0 q 0.55,-1.96 0.44,-2.52 z m 11.08,-0.71 v 0 q -0.71,-0.23 -1.89,0.15 v 0 0 q -1.51,0.49 -2.07,2.2 v 0 0 q -0.35,1.06 -0.17,2.34 v 0 0 q 0.08,0.65 0.35,1.05 v 0 0 q -0.42,0.22 -0.71,0.54 v 0 0 q -1,1.1 -0.89,2.31 v 0 0 q 0.07,0.69 0.55,1.1 v 0 0 q 0.39,0.33 1.22,0.31 v 0 0 q 0.84,-0.03 1.54,-0.47 v 0 0 q 0.75,-0.46 1.05,-1.19 v 0 0 q 0.06,-0.15 -0.22,-0.16 v 0 0 q -0.17,-0.01 -0.36,0.03 v 0 0 q -0.75,0.13 -0.85,0.39 v 0 0 q -0.2,0.49 -0.55,0.78 v 0 0 q -0.01,0.01 -0.03,0.02 v 0 0 q -0.05,-0.01 -0.05,-0.01 v 0 0 q -0.07,-0.02 -0.15,-0.06 v 0 0 q -0.17,-0.07 -0.32,-0.23 v 0 0 q -0.29,-0.29 -0.37,-0.89 v 0 0 q -0.09,-0.8 0.54,-1.77 v 0 0 q 0.08,-0.12 0.18,-0.24 v 0 0 q 0.21,0.08 0.49,0.1 v 0 0 q 0.4,0.02 0.89,-0.21 v 0 0 q 0.42,-0.19 0.27,-0.33 v 0 0 Q 208.33,6.9 207.91,6.84 v 0 0 q -0.04,-0.05 -0.08,-0.09 v 0 0 q -0.2,-0.3 -0.31,-0.86 v 0 0 q -0.19,-1 -0.01,-1.89 v 0 0 q 0.27,-1.3 1.03,-1.96 v 0 0 Q 208.6,2 208.69,1.93 v 0 0 q 0.01,0 0.01,0 v 0 0 q 0.13,0.01 0.11,0 v 0 0 q 0.58,0.09 0.47,0.69 v 0 0 q -0.05,0.24 0.58,0.13 v 0 0 q 0.3,-0.06 0.56,-0.17 v 0 0 q 0.28,-0.13 0.3,-0.22 v 0 0 q 0.13,-0.73 -0.55,-0.94 z m 19.46,7.95 v 0 q -0.1,0.13 -0.35,0.33 v 0 0 q -0.04,0.03 -0.15,0.1 v 0 0 q -0.05,0.04 -0.11,0.07 v 0 0 q -0.1,0.07 -0.1,0.06 v 0 0 q -0.09,0.04 -0.2,0.1 v 0 0 q -0.02,0.01 -0.09,0.03 v 0 0 q 0,0.01 -0.1,0.05 v 0 0 q -0.02,0 -0.09,0.03 v 0 0 q -0.08,0.02 -0.09,0.03 v 0 0 q -0.08,0.02 -0.19,0.04 v 0 0 q -0.02,0.02 -0.17,0.04 v 0 0 q 0,0 -0.05,0.01 v 0 0 q 0.02,0 -0.12,0.01 v 0 0 q -0.07,0.01 -0.2,0.02 v 0 0 q 0.03,0 -0.15,0 v 0 0 q 0.08,-0.26 0.44,-2.05 v 0 0 q 0.32,-0.04 0.59,-0.19 v 0 0 q 0.13,-0.06 0.27,-0.12 v 0 0 q 0.01,-0.01 0.02,-0.01 v 0 0 q 0,0 0,0 v 0 0 Q 228.87,7.88 229,7.84 v 0 0 q 0.01,0 0.01,-0.01 v 0 h 0.01 v 0 q 0.02,0 0.08,-0.02 v 0 0 q 0.07,-0.02 0.08,-0.02 v 0 0 q 0.04,0 0.08,-0.01 v 0 0 q 0.04,-0.01 0.09,-0.01 v 0 0 q 0,0 0,0 v 0 0 q 0.02,0 0.05,0 v 0 0 q 0.03,0 0.05,0 v 0 0 q 0.01,0 0.05,0.01 v 0 0 q 0.13,0.03 0.24,0.1 v 0 0 q 0.22,0.15 0.22,0.58 v 0 0 q 0,0.47 -0.33,0.91 z m -0.38,-3.22 v 0 q -0.49,0.8 -1.18,1.39 v 0 0 q 0.14,-0.59 0.41,-1.52 v 0 0 q 0.73,-2.57 0.91,-3.58 v 0 0 q 0.52,0.51 0.58,1.39 v 0 0 q 0.08,1 -0.72,2.32 z m 0.32,1.1 v 0 q 0.61,-0.58 1.07,-1.3 v 0 0 q 0.91,-1.39 0.78,-2.65 v 0 0 Q 231.31,2.15 230.3,1.62 v 0 0 q -1.02,-0.54 -2.62,-0.07 v 0 0 Q 226.95,1.76 227,1.96 v 0 0 q 0.07,0.24 0.79,0.03 v 0 0 q 0.18,-0.06 0.13,-0.04 v 0 0 q 0.07,-0.01 0.07,-0.02 v 0 0 q 0.02,0 0.03,0 v 0 0 q 0.04,0 0.07,0 v 0 0 q -0.02,0.04 -0.03,0.09 v 0 0 q -0.15,1.21 -1.02,4.26 v 0 0 q -0.35,1.22 -0.54,2.1 v 0 0 q -0.5,2.33 -0.49,2.28 v 0 0 q -0.05,0.18 0.3,0.17 v 0 0 q 0.06,0.04 0.19,0.05 v 0 0 q 1.54,0.05 3.17,-0.72 v 0 0 q 1.61,-0.77 1.75,-2 v 0 0 q 0.13,-1.28 -1.85,-0.91 z M 241.76,5.2 v 0 q -0.12,1.44 -0.39,2.72 v 0 0 q -0.41,1.96 -1.18,2.72 v 0 0 q -0.09,-0.09 -0.17,-0.26 v 0 0 q -0.18,-0.41 -0.17,-1.35 v 0 0 q 0.03,-1.69 0.6,-3.55 v 0 0 q 0.5,-1.63 1.2,-2.47 v 0 0 q 0.08,0.24 0.12,0.61 v 0 0 q 0.07,0.59 -0.01,1.58 z m 0.93,-3.24 v 0 q -0.21,-0.17 -0.94,0.09 v 0 0 q -0.5,0.19 -0.48,0.34 v 0 0 q -0.26,0.09 -0.43,0.24 v 0 0 q -0.99,0.77 -1.65,2.59 v 0 0 q -0.55,1.48 -0.74,3.28 v 0 0 q -0.08,0.78 -0.05,1.42 v 0 0 q 0.04,0.85 0.4,1.21 v 0 0 q 0.18,0.18 0.62,0.2 v 0 0 q 0.54,0.03 1.36,-0.31 v 0 0 q 0.69,-0.28 1.21,-1.08 v 0 0 q 0.47,-0.73 0.78,-2.09 v 0 0 q 0.21,-0.91 0.34,-2.01 v 0 0 q 0.16,-1.4 0.16,-2.06 v 0 0 q -0.01,-1.33 -0.58,-1.82 z m 10.62,3.24 v 0 q -0.13,1.44 -0.39,2.72 v 0 0 q -0.41,1.96 -1.19,2.72 v 0 0 q -0.09,-0.09 -0.16,-0.26 v 0 0 Q 251.38,9.97 251.4,9.03 v 0 0 q 0.03,-1.69 0.6,-3.55 v 0 0 q 0.5,-1.63 1.2,-2.47 v 0 0 q 0.07,0.24 0.12,0.61 v 0 0 q 0.07,0.59 -0.01,1.58 z m 0.93,-3.24 v 0 q -0.21,-0.17 -0.95,0.09 v 0 0 q -0.5,0.19 -0.48,0.34 v 0 0 q -0.25,0.09 -0.43,0.24 v 0 0 q -0.98,0.77 -1.64,2.59 v 0 0 Q 250.19,6.7 250,8.5 v 0 0 q -0.08,0.78 -0.06,1.42 v 0 0 q 0.04,0.85 0.41,1.21 v 0 0 q 0.18,0.18 0.61,0.2 v 0 0 q 0.54,0.03 1.37,-0.31 v 0 0 q 0.68,-0.28 1.2,-1.08 v 0 0 Q 254,9.21 254.32,7.85 v 0 0 q 0.21,-0.91 0.33,-2.01 v 0 0 q 0.17,-1.4 0.17,-2.06 v 0 0 Q 254.8,2.45 254.24,1.96 Z m 13.23,-0.42 v 0 q -0.3,0.05 -0.55,0.17 v 0 0 q -0.29,0.14 -0.3,0.22 v 0 0 q -0.26,1.3 -1.5,2.98 v 0 0 q -0.67,0.91 -1.67,1.96 v 0 0 q 0.1,-0.56 0.14,-0.78 v 0 0 q 0.52,-2.67 1.34,-3.83 v 0 0 q 0.1,-0.14 -0.22,-0.15 v 0 0 q -0.21,-0.02 -0.36,0.01 v 0 0 q -0.66,0.12 -0.86,0.4 v 0 0 q -0.82,1.16 -1.35,3.91 v 0 0 q -0.39,2 -0.4,2.04 v 0 0 q -0.48,2.14 -0.49,2.38 v 0 0 q -0.01,0.07 0.22,0.08 v 0 0 q 0.21,0.01 0.49,-0.05 v 0 0 q 0.73,-0.13 0.75,-0.43 v 0 0 q 0.02,-0.28 0.47,-2.23 v 0 0 q 0.32,0.63 0.59,1.47 v 0 0 q 0.4,1.28 0.39,2.33 v 0 0 q 0,0.09 0.23,0.09 v 0 0 q 0.22,0.02 0.5,-0.04 v 0 0 q 0.73,-0.15 0.73,-0.44 v 0 0 q 0.02,-1.01 -0.39,-2.33 v 0 0 q -0.38,-1.23 -0.95,-2.05 v 0 0 q 1.33,-1.34 2.23,-2.53 v 0 0 q 1.28,-1.71 1.54,-3.05 v 0 0 q 0.06,-0.25 -0.58,-0.13 z m 11.41,3.96 v 0 q 0.45,-0.76 0.66,-1.97 v 0 0 q 0.23,-1.38 -0.26,-1.96 v 0 0 q -0.29,-0.35 -1.04,-0.3 v 0 0 q -0.94,0.06 -1.84,0.58 v 0 0 q -1.25,0.74 -1.86,2.49 v 0 0 q -0.61,1.76 0,2.84 v 0 0 q 0.3,0.5 1.67,0.99 v 0 0 q 0.57,0.2 0.78,0.31 v 0 0 q 0.43,0.26 0.52,0.63 v 0 0 q 0.1,0.39 -0.24,1.06 v 0 0 q -0.18,0.34 -0.46,0.59 v 0 0 q -0.12,0.11 -0.28,0.21 v 0 0 q -0.07,0.05 -0.09,0.06 v 0 0 q -0.06,0.04 -0.12,0.06 v 0 0 q 0.09,-0.04 -0.03,0.01 v 0 0 q 0,0 0.07,-0.01 v 0 0 q -0.04,0 -0.09,0 v 0 0 q -0.01,0.01 -0.1,0 v 0 0 q -0.05,0 -0.2,-0.04 v 0 0 q -0.36,-0.08 -0.66,-0.41 v 0 0 Q 275.09,10.39 275,9.93 v 0 0 q -0.1,-0.49 0.13,-0.65 v 0 0 q 0.19,-0.15 0.17,-0.22 v 0 0 q -0.02,-0.09 -0.26,-0.1 v 0 0 q -0.62,-0.01 -1.03,0.28 v 0 0 q -0.39,0.29 -0.46,0.62 v 0 0 q -0.09,0.34 0.07,0.76 v 0 0 q 0.28,0.74 1.14,0.99 v 0 0 q 0.89,0.26 2.16,-0.24 v 0 0 q 1.02,-0.41 1.58,-1.13 v 0 0 q 0.38,-0.48 0.47,-1 v 0 0 q 0.1,-0.62 -0.28,-1.01 v 0 0 q -0.27,-0.27 -0.83,-0.48 v 0 0 Q 277.71,7.7 277.4,7.59 v 0 0 Q 277.1,7.5 276.97,7.44 v 0 0 q -0.53,-0.21 -0.81,-0.47 v 0 0 q -0.3,-0.28 -0.41,-1.01 v 0 0 q -0.19,-1.43 0.76,-2.99 v 0 0 q 0.41,-0.68 0.92,-1.02 v 0 0 q 0.05,-0.04 0.14,-0.09 v 0 0 q 0,0 0.05,-0.02 v 0 0 q -0.01,0 0.03,-0.01 v 0 0 q -0.03,0.01 0.01,0 v 0 0 q -0.07,0.02 -0.15,0.02 v 0 0 q 0.02,0 0.01,0 v 0 h 0.02 v 0 q 0.05,0.01 0.14,0.04 v 0 0 q 0.01,0 0.11,0.07 v 0 0 q 0.06,0.05 0.1,0.1 v 0 0 q 0.12,0.14 0.19,0.39 v 0 0 q 0.12,0.39 0.05,1.04 v 0 0 q -0.12,1.32 -0.69,2.27 v 0 0 q -0.09,0.14 0.22,0.15 v 0 0 q 0.19,0.01 0.36,-0.02 v 0 0 q 0.69,-0.13 0.86,-0.39 z" />
  </g>
</svg>
