<?xml version="1.0" encoding="UTF-8" standalone="no"?>
<svg
   xmlns:dc="http://purl.org/dc/elements/1.1/"
   xmlns:cc="http://creativecommons.org/ns#"
   xmlns:rdf="http://www.w3.org/1999/02/22-rdf-syntax-ns#"
   xmlns:svg="http://www.w3.org/2000/svg"
   xmlns="http://www.w3.org/2000/svg"
   xmlns:xlink="http://www.w3.org/1999/xlink"
   xmlns:sodipodi="http://sodipodi.sourceforge.net/DTD/sodipodi-0.dtd"
   xmlns:inkscape="http://www.inkscape.org/namespaces/inkscape"
   inkscape:version="1.0 (4035a4fb49, 2020-05-01)"
   height="940"
   width="3600"
   sodipodi:docname="logo-mediumxx.svg"
   id="svg16"
   version="1.1"
   class="font"
   viewBox="0 0 3600.0003 940"
   data-v-fde0c5aa="">
  <metadata
     id="metadata20">
    <rdf:RDF>
      <cc:Work
         rdf:about="">
        <dc:format>image/svg+xml</dc:format>
        <dc:type
           rdf:resource="http://purl.org/dc/dcmitype/StillImage" />
        <dc:title></dc:title>
      </cc:Work>
    </rdf:RDF>
  </metadata>
  <sodipodi:namedview
     lock-margins="true"
     inkscape:current-layer="svg16"
     inkscape:window-maximized="1"
     inkscape:window-y="-8"
     inkscape:window-x="-8"
     inkscape:cy="24.22724"
     inkscape:cx="110"
     inkscape:zoom="0.2371026"
     fit-margin-bottom="0"
     fit-margin-right="0"
     fit-margin-left="0"
     fit-margin-top="0"
     showgrid="false"
     id="namedview18"
     inkscape:window-height="1027"
     inkscape:window-width="1920"
     inkscape:pageshadow="2"
     inkscape:pageopacity="0"
     guidetolerance="10"
     gridtolerance="10"
     objecttolerance="10"
     borderopacity="1"
     bordercolor="#666666"
     pagecolor="#ffffff"
     inkscape:document-rotation="0" />
  <!---->
  <defs
     id="defs2"
     data-v-fde0c5aa="">
    <!---->
    <linearGradient
       gradientUnits="userSpaceOnUse"
       y2="2.9831319"
       x2="24.159843"
       y1="2.9831319"
       x1="0.6570276"
       gradientTransform="scale(2.1308084,0.46930545)"
       id="linearGradient22"
       xlink:href="#ac451596-3893-414a-bda9-6835889448eb"
       inkscape:collect="always" />
    <linearGradient
       gradientUnits="userSpaceOnUse"
       y2="2.9831319"
       x2="24.159843"
       y1="2.9831319"
       x1="0.6570276"
       gradientTransform="scale(2.1308084,0.46930545)"
       id="linearGradient24"
       xlink:href="#ac451596-3893-414a-bda9-6835889448eb"
       inkscape:collect="always" />
  </defs>
  <defs
     id="defs11"
     data-v-fde0c5aa="">
    <linearGradient
       y2="0"
       x2="1"
       y1="0"
       x1="0"
       id="ac451596-3893-414a-bda9-6835889448eb"
       gradientTransform="rotate(25)"
       data-v-fde0c5aa="">
      <stop
         id="stop6"
         stop-opacity="1"
         stop-color="#A92580"
         offset="0%"
         data-v-fde0c5aa="" />
      <stop
         id="stop8"
         stop-opacity="1"
         stop-color="#F7BC00"
         offset="100%"
         data-v-fde0c5aa="" />
    </linearGradient>
  </defs>
  <g
     style="fill:url(#linearGradient24);stroke-width:0.0647424"
     transform="matrix(67.891374,0,0,67.815051,4.9520761,5.0589294)"
     fill="url(#ac451596-3893-414a-bda9-6835889448eb)"
     id="f5ad1045-4af8-4841-a52c-de62ac9472b9"
     data-v-fde0c5aa="">
    <path
       style="fill:url(#linearGradient22);stroke-width:0.0647424"
       id="path13"
       d="m 4.34,1.4 v 0 q 1.58,0 2.83,0.7 v 0 0 q 1.24,0.7 1.94,1.94 v 0 0 q 0.7,1.24 0.7,2.82 v 0 0 q 0,1.58 -0.7,2.83 v 0 0 q -0.7,1.24 -1.94,1.94 v 0 0 q -1.25,0.7 -2.83,0.7 v 0 H 1.82 v 0 q -0.18,0 -0.3,-0.12 v 0 0 Q 1.4,12.1 1.4,11.91 v 0 -10.09 0 q 0,-0.2 0.12,-0.31 v 0 0 Q 1.64,1.4 1.82,1.4 v 0 z m 0,10.18 v 0 q 1.34,0 2.39,-0.61 v 0 0 Q 7.78,10.36 8.38,9.28 v 0 0 Q 8.97,8.2 8.97,6.86 v 0 0 q 0,-1.34 -0.59,-2.42 v 0 0 Q 7.78,3.37 6.73,2.76 v 0 0 Q 5.68,2.16 4.34,2.16 v 0 h -2.1 v 9.42 z M 15.09,4.61 v 0 q 1.02,0 1.83,0.48 v 0 0 q 0.8,0.48 1.25,1.34 v 0 0 q 0.45,0.85 0.45,1.94 v 0 0 q 0,0.18 -0.11,0.29 v 0 0 q -0.11,0.1 -0.3,0.1 v 0 h -5.86 v 0 q 0.04,0.83 0.43,1.48 v 0 0 q 0.39,0.65 1.05,1.02 v 0 0 q 0.66,0.36 1.47,0.36 v 0 0 q 0.55,0 1.1,-0.19 v 0 0 q 0.55,-0.19 0.88,-0.5 v 0 0 q 0.14,-0.11 0.29,-0.11 v 0 0 q 0.15,0 0.25,0.09 v 0 0 q 0.16,0.12 0.16,0.29 v 0 0 q 0,0.14 -0.13,0.27 v 0 0 q -0.45,0.4 -1.17,0.67 v 0 0 Q 15.96,12.4 15.3,12.4 v 0 0 q -1.1,0 -1.96,-0.49 v 0 0 q -0.87,-0.5 -1.36,-1.39 v 0 0 Q 11.49,9.63 11.49,8.51 v 0 0 q 0,-1.13 0.46,-2.02 v 0 0 Q 12.4,5.6 13.22,5.1 v 0 0 q 0.82,-0.49 1.87,-0.49 z m 0,0.78 v 0 q -1.09,0 -1.84,0.73 v 0 0 Q 12.5,6.85 12.36,8.04 v 0 h 5.45 v 0 Q 17.71,6.85 16.97,6.12 v 0 0 Q 16.23,5.39 15.09,5.39 Z m 11.37,-0.7 v 0 Q 26.7,4.8 26.7,5.05 v 0 0 q 0,0.1 -0.03,0.16 v 0 l -3.15,6.84 v 0 q -0.14,0.3 -0.45,0.3 v 0 0 q -0.12,0 -0.23,-0.08 v 0 0 q -0.1,-0.08 -0.16,-0.22 v 0 L 19.49,5.22 v 0 Q 19.46,5.17 19.46,5.07 v 0 0 q 0,-0.25 0.24,-0.37 v 0 0 q 0.08,-0.04 0.17,-0.04 v 0 0 q 0.23,0 0.35,0.24 v 0 l 2.87,6.22 2.82,-6.23 v 0 q 0.12,-0.24 0.37,-0.24 v 0 0 q 0.1,0 0.18,0.04 z m 5.28,-0.1 v 0 q 1.09,0 1.99,0.51 v 0 0 q 0.89,0.51 1.4,1.41 v 0 0 q 0.51,0.9 0.51,2 v 0 0 q 0,1.09 -0.51,1.99 v 0 0 q -0.51,0.9 -1.4,1.41 v 0 0 q -0.9,0.51 -1.99,0.51 v 0 0 q -1.11,0 -2,-0.51 v 0 0 Q 28.84,11.4 28.33,10.5 v 0 0 Q 27.82,9.6 27.82,8.51 v 0 0 q 0,-1.1 0.51,-2 v 0 0 q 0.51,-0.9 1.41,-1.41 v 0 0 q 0.89,-0.51 2,-0.51 z m 0,0.79 v 0 q -0.87,0 -1.57,0.41 v 0 0 q -0.7,0.41 -1.11,1.13 v 0 0 q -0.4,0.71 -0.4,1.59 v 0 0 q 0,0.88 0.4,1.6 v 0 0 q 0.41,0.71 1.11,1.12 v 0 0 q 0.7,0.4 1.57,0.4 v 0 0 q 0.87,0 1.57,-0.4 v 0 0 q 0.7,-0.41 1.1,-1.12 v 0 0 Q 34.8,9.39 34.8,8.51 v 0 0 q 0,-0.88 -0.39,-1.59 v 0 0 Q 34.01,6.2 33.31,5.79 v 0 0 Q 32.61,5.38 31.74,5.38 Z m 12.49,-0.7 v 0 q 0.19,0 0.3,0.11 v 0 0 q 0.12,0.11 0.12,0.31 v 0 6.81 0 q 0,0.19 -0.12,0.3 v 0 0 q -0.11,0.12 -0.3,0.12 v 0 0 q -0.19,0 -0.3,-0.12 v 0 0 q -0.12,-0.11 -0.12,-0.3 v 0 -0.72 0 q -0.48,0.58 -1.17,0.91 v 0 0 q -0.68,0.33 -1.49,0.33 v 0 0 q -1.03,0 -1.83,-0.42 v 0 0 q -0.81,-0.42 -1.26,-1.22 v 0 0 Q 37.6,9.98 37.6,8.86 v 0 -3.76 0 q 0,-0.19 0.12,-0.31 v 0 0 q 0.12,-0.11 0.3,-0.11 v 0 0 q 0.19,0 0.31,0.11 v 0 0 q 0.11,0.12 0.11,0.31 v 0 3.76 0 q 0,1.33 0.75,2.03 v 0 0 q 0.75,0.7 1.96,0.7 v 0 0 q 0.74,0 1.35,-0.29 v 0 0 q 0.61,-0.28 0.96,-0.79 v 0 0 Q 43.81,10 43.81,9.38 v 0 -4.28 0 q 0,-0.2 0.12,-0.31 v 0 0 q 0.11,-0.11 0.3,-0.11 z m 6.18,-0.09 v 0 q 1.07,0 1.07,0.46 v 0 0 q 0,0.07 -0.02,0.12 v 0 0 q -0.04,0.15 -0.13,0.21 v 0 0 q -0.09,0.07 -0.24,0.07 v 0 0 q -0.13,0 -0.33,-0.03 v 0 0 Q 50.55,5.39 50.41,5.39 v 0 0 q -0.7,0 -1.24,0.29 v 0 0 q -0.55,0.3 -0.86,0.82 v 0 0 q -0.3,0.51 -0.3,1.16 v 0 4.25 0 q 0,0.19 -0.12,0.3 v 0 0 q -0.11,0.12 -0.3,0.12 v 0 0 q -0.19,0 -0.3,-0.12 v 0 0 q -0.12,-0.11 -0.12,-0.3 v 0 -6.81 0 q 0,-0.2 0.12,-0.31 v 0 0 q 0.11,-0.11 0.3,-0.11 v 0 0 q 0.19,0 0.3,0.11 v 0 0 q 0.12,0.11 0.12,0.31 v 0 0.86 0 q 0.4,-0.64 1.03,-1 v 0 0 q 0.63,-0.37 1.37,-0.37 z" />
  </g>
  <!---->
  <!---->
</svg>
